<?xml version="1.0" encoding="UTF-8"?>
<svg xmlns="http://www.w3.org/2000/svg" xmlns:xlink="http://www.w3.org/1999/xlink" xmlns:svgjs="http://svgjs.com/svgjs" version="1.1" width="512" height="512" x="0" y="0" viewBox="0 0 128 128" style="enable-background:new 0 0 512 512" xml:space="preserve">
  <g>
    <path d="M36.8 14.623C33.021 7.18 24.117-.78 16.926 3.372c-2.919 1.685-4.531 4.906-4.542 9.072-.011 4.726 2.513 10.971 4.408 13.863C18.556 29 54.934 83.414 54.934 83.414l-18.168 36.825a3.931 3.931 0 0 0 6.77 3.908l19.3-28.9 7.121 10.661-5.845 10.125a1.75 1.75 0 1 0 3.031 1.75l4.982-8.629 10.014 14.993a3.931 3.931 0 0 0 6.771-3.908L78.23 98.586l9.876-17.107A11.733 11.733 0 0 0 83.884 65.5c-.282-.164-.565-.325-.847-.489l4.368-6.54 3.179 1.829a7.422 7.422 0 1 0 7.422-12.856L95.667 46.1l5.5-8.236 1.78 1.028a8.441 8.441 0 1 0 8.441-14.621l-1.081-.625c5.106-10.39 3.067-17.6-1.555-20.272-7.223-4.174-16.343 4.064-19.928 11.35-1.529 3.106-4.6 9.317-4.6 9.317l-1.721-.994a8.442 8.442 0 0 0-8.442 14.621l2.678 1.546-3.485 7.062a7.417 7.417 0 0 0-7.152 12.993l.578.332-3.843 7.79S38.231 17.439 36.8 14.623zm-17.066 9.788c-2.526-4.39-3.858-8.525-3.85-11.958 0-2.027.493-4.724 2.792-6.05s4.877-.4 6.635.608c2.977 1.709 5.892 4.928 8.43 9.313l27.147 55.022-4.166 8.444zm20.942 97.718a.435.435 0 0 1-.731-.423l29.776-60.351q4.17 2.4 8.332 4.815zm44.857.077a.5.5 0 0 1-.531-.078L64.943 92.1l3.557-5.326 17.234 34.932a.5.5 0 0 1-.201.5zm-3.41-53.685a8.228 8.228 0 0 1 2.952 11.208l-8.708 15.083-5.623-11.4 10.345-15.488c.344.2.69.397 1.034.597zm14.133-18.042a3.922 3.922 0 0 1-3.922 6.793l-2.981-1.721 4.366-6.536zm15.191-16.429a4.922 4.922 0 0 1-6.749 1.808l-1.582-.913 5.5-8.235 1.022.59a4.923 4.923 0 0 1 1.809 6.75zM91.938 16.324c4.3-8.47 10.951-12.3 15.064-9.921 3.689 2.131 3.709 8.3.264 15.485l-2.5-1.441c1.652-3.738 1.95-7.707-.582-9.169-2.959-1.71-6.955 1.64-9.372 5.826s-3.316 9.319-.358 11.028c3.008 1.739 6.636-1.694 8.615-4.623l2.507 1.447L92.63 44.345l-11.3-6.523s8.779-17.892 10.608-21.498zm8.86 4.234c-1.887 3.269-3.96 4.518-4.58 4.526-.3-.541-.259-2.961 1.629-6.23s3.96-4.518 4.581-4.527c.303.542.258 2.962-1.628 6.231zM75.814 34.637a4.942 4.942 0 0 1 4.942-8.559l1.92 1.108-4.382 8.882zm14.868 12.624L80 63.253q-4.362-2.526-8.728-5.044l8.506-17.242zm-22.828 8.975a3.918 3.918 0 0 1 3.855-6.822l-3.474 7.042z" fill="" data-original="#000000"></path>
    <path d="M21.491 11.278c-2.958 1.709-2.058 6.842.359 11.03 1.981 3.431 6.053 7.742 9.372 5.824 2.958-1.709 2.059-6.842-.359-11.028s-6.414-7.536-9.372-5.826zm7.969 13.806c-.62-.008-2.692-1.257-4.58-4.526s-1.933-5.689-1.63-6.231c.621.009 2.694 1.258 4.581 4.527s1.933 5.689 1.629 6.23z" fill="" data-original="#000000"></path>
  </g>
</svg>
