<?xml version="1.0" encoding="UTF-8"?>
<svg xmlns="http://www.w3.org/2000/svg" xmlns:xlink="http://www.w3.org/1999/xlink" xmlns:svgjs="http://svgjs.com/svgjs" version="1.1" width="512" height="512" x="0" y="0" viewBox="0 0 64 64" style="enable-background:new 0 0 512 512" xml:space="preserve">
  <g>
    <path d="M56.215 52.816a24.25 24.25 0 0 0-11.63-19.794L49.82 23.4c2.087.353 3.95-1.173 4.972-3.018 1.205-2.086 1.216-5.258-.951-6.458-4.328-2.066-8.81 5.163-5.777 8.52l-5.232 9.613a24.04 24.04 0 0 0-7.78-2.366V24.19c4.263-1.373 3.71-10.206-1-10.251-2.2 0-3.923 2.292-3.923 5.218 0 2.462 1.226 4.456 2.924 5.033v5.33c-.35-.015-.7-.027-1.054-.027a24.251 24.251 0 0 0-4.51.427V14.252c4.262-1.37 3.707-10.21-1-10.252-2.2 0-3.925 2.292-3.925 5.218 0 2.462 1.227 4.457 2.925 5.034v16.136a24.136 24.136 0 0 0-6.97 3.21l-4.563-8.384c3.166-3.44-1.826-10.72-5.777-8.522-3.22 1.688-1.622 7.603 1.655 9.085a3.628 3.628 0 0 0 2.364.393l4.695 8.626a24.203 24.203 0 0 0-9.109 18.02A3.638 3.638 0 0 0 8.555 60h46.89a3.637 3.637 0 0 0 .77-7.184zm-6.559-35.23c2.156-3.674 5.29-1.932 3.381 1.84-2.144 3.664-5.292 1.947-3.38-1.84zm-17.526 1.57c.129-4.235 3.72-4.234 3.849 0-.13 4.233-3.72 4.234-3.85 0zm-7.565-9.938c.13-4.234 3.72-4.234 3.85 0-.13 4.234-3.72 4.234-3.85 0zM10.734 23.99a4.33 4.33 0 0 1-1.75-1.796c-1.91-3.78 1.245-5.5 3.38-1.838.987 1.536.804 4.812-1.63 3.634zm7.137 12.6 4.78 8.782a1 1 0 0 0 1.757-.957l-4.92-9.04a22.14 22.14 0 0 1 6.002-2.908v3.64a1 1 0 0 0 2 0V31.96a20.332 20.332 0 0 1 5.564-.415v14.503a1 1 0 0 0 2 0v-14.32a22.043 22.043 0 0 1 6.817 2.099l-4.257 7.821a1 1 0 0 0 1.756.956l4.248-7.805A22.235 22.235 0 0 1 54.216 52.73H9.784a22.197 22.197 0 0 1 8.087-16.14zM55.445 58H8.555a1.635 1.635 0 0 1 0-3.27c.075-.005 46.557.004 46.683 0a1.64 1.64 0 1 1 .207 3.27z" fill="" data-original="#000000"></path>
  </g>
</svg>
