<?xml version="1.0" encoding="UTF-8"?>
<svg xmlns="http://www.w3.org/2000/svg" xmlns:xlink="http://www.w3.org/1999/xlink" xmlns:svgjs="http://svgjs.com/svgjs" version="1.1" width="512" height="512" x="0" y="0" viewBox="0 0 512 512" style="enable-background:new 0 0 512 512" xml:space="preserve">
  <g>
    <path d="M471.987 399.339c-.253-9.805-6.282-23.471-31.987-35.475V150.028c17.311-8.279 22.265-16.67 23.155-18.45.222-.442.402-.904.537-1.38L476.8 84.313A25.819 25.819 0 0 0 480 72c0-11.7-8.267-28.4-47.646-41.531C404.361 21.139 367.3 16 328 16s-76.361 5.139-104.354 14.469C184.267 43.6 176 60.3 176 72a25.819 25.819 0 0 0 3.2 12.313l13.11 45.885c.135.476.315.938.537 1.38.89 1.78 5.844 10.171 23.155 18.45v116.6a48.417 48.417 0 0 0-29.039 4.537c-16.854 8.578-28.552 27.116-34.771 55.1C140.411 379.274 129.242 408 104 408c-10.593 0-16.532-9.055-25.054-23.969C70.366 369.017 60.643 352 40 352a8 8 0 0 0 0 16c10.593 0 16.532 9.055 25.054 23.969C73.634 406.983 83.357 424 104 424c39.584 0 52.771-44.589 63.81-94.265 5.106-22.977 13.929-37.854 26.226-44.215 8.373-4.332 16.843-3.707 21.964-2.653v81c-25.628 11.953-31.731 25.577-31.987 35.473l-7.933 55.533a8 8 0 0 0 1.52 5.931c2.7 3.6 29.879 35.2 150.4 35.2s147.7-31.6 150.4-35.2a8 8 0 0 0 1.52-5.931zM299.763 167.258c-9.6 30.162-34.957 54.909-67.763 66.153v-17.023c24.289-9.751 43.02-28.12 51.3-50.358 5.189.496 10.677.905 16.463 1.228zM232 250.205c1.907-.569 68.638-19.299 84.258-82.323a563.998 563.998 0 0 0 16.485.104C321.6 215.182 282.646 253.41 232 266.821zm125.261-19.3c24.944-1.894 48.043-6.227 66.739-12.461V233.5c-20.865 7.788-48.689 12.741-78.845 14.11a178.803 178.803 0 0 0 12.106-16.705zm-27.178 33.085c35.063-.185 68.437-5.037 93.917-13.534V265.5c-24.773 9.246-59.352 14.5-96 14.5-5.46 0-10.883-.118-16.269-.354a193.58 193.58 0 0 0 18.352-15.656zM289.5 294.084A382.842 382.842 0 0 0 328 296c35.823 0 70.016-4.879 96-13.544v15.484c-24.773 9.246-59.352 14.5-96 14.5a339.323 339.323 0 0 1-65.127-6 200.386 200.386 0 0 0 26.627-12.356zM232 315.442c.34-.072.682-.138 1.021-.211 25.856 8.456 59.622 13.21 94.979 13.21 35.823 0 70.016-4.879 96-13.544v14.6c-24.773 9.246-59.352 14.5-96 14.5s-71.227-5.255-96-14.5zm192-113.955c-15.64 5.836-35.4 10.137-57.207 12.48a168.623 168.623 0 0 0 7.12-16.719c18.622-2.3 35.639-5.966 50.087-10.791zm-103.928 49.93C296.092 275 265.8 291.354 232 299.063v-15.73c59.775-14.233 105.764-59.666 117.218-115.743a433.098 433.098 0 0 0 16.414-.948c-5.671 31.758-21.314 60.928-45.56 84.775zM328 360c35.823 0 70.016-4.879 96-13.544V361.5c-24.773 9.246-59.352 14.5-96 14.5s-71.227-5.255-96-14.5v-15.044C257.984 355.121 292.177 360 328 360zm-96 18.456C257.984 387.121 292.177 392 328 392s70.016-4.879 96-13.544v15.585c-63.778 18.5-128.312 18.5-192 0zm192-208.968c-12.662 4.725-27.937 8.439-44.955 10.929a169.211 169.211 0 0 0 3.075-15.411c17.348-2.138 31.057-5.242 41.88-8.713zM328 32c84.261 0 136 23.3 136 40s-51.739 40-136 40-136-23.3-136-40 51.739-40 136-40zm-120.643 92.631-5.833-20.417a139.853 139.853 0 0 0 22.122 9.317C251.639 122.861 288.7 128 328 128s76.361-5.139 104.354-14.469a139.853 139.853 0 0 0 22.122-9.317l-5.833 20.417C445.771 128.314 423.542 152 328 152s-117.771-23.686-120.643-27.369zm59.471 39.424c-6.537 14.634-18.919 26.988-34.828 34.83v-42.592a217.7 217.7 0 0 0 34.828 7.762zM216 381.866V400a8 8 0 0 0 5.646 7.646 359.858 359.858 0 0 0 106.316 16.286 360.682 360.682 0 0 0 106.39-16.286A8 8 0 0 0 440 400v-18.125c10.188 5.875 16 12.33 16 18.125 0 16.7-48.695 40-128 40s-128-23.3-128-40c0-5.844 5.789-12.265 16-18.134zM328 480c-94.67 0-127.387-20.326-135.5-26.917l4.14-28.977c6.883 5.988 17.225 11.976 32.533 17.379C255.691 450.845 290.789 456 328 456s72.309-5.155 98.829-14.515c15.308-5.4 25.65-11.391 32.533-17.379l4.14 28.977C455.387 459.674 422.67 480 328 480z" fill="" data-original="#000000"></path>
    <path d="M271.556 91.148C286.717 94.277 306.762 96 328 96s41.283-1.723 56.444-4.852c7.957-1.641 29.094-6 29.094-19.148S392.4 54.493 384.444 52.852C369.283 49.723 349.238 48 328 48s-41.283 1.723-56.444 4.852c-7.957 1.641-29.094 6-29.094 19.148s21.138 17.507 29.094 19.148zm8.168-23.557C293.179 65.275 310.324 64 328 64c33.808 0 56.4 4.416 65.774 7.982-3.249 1.283-8.665 2.907-17.5 4.427C362.821 78.725 345.676 80 328 80c-33.808 0-56.4-4.416-65.774-7.982 3.249-1.283 8.665-2.907 17.498-4.427z" fill="" data-original="#000000"></path>
  </g>
</svg>
